<svg width="1088" height="545" viewBox="0 0 1088 545" fill="none" xmlns="http://www.w3.org/2000/svg">
<path opacity="0.2" d="M1272.78 1L1.00003 569.196" stroke="white" stroke-width="2"/>
<path opacity="0.2" d="M1347.59 34.4233L75.8108 602.619" stroke="white" stroke-width="2"/>
<path opacity="0.2" d="M1422.4 67.8464L150.621 636.042" stroke="white" stroke-width="2"/>
<path opacity="0.2" d="M1497.21 101.27L225.432 669.465" stroke="white" stroke-width="2"/>
<path opacity="0.2" d="M1572.02 134.693L300.242 702.889" stroke="white" stroke-width="2"/>
<path opacity="0.2" d="M1646.83 168.116L375.052 736.312" stroke="white" stroke-width="2"/>
<path opacity="0.2" d="M1721.64 201.54L449.862 769.735" stroke="white" stroke-width="2"/>
<path opacity="0.2" d="M1796.45 234.963L524.673 803.158" stroke="white" stroke-width="2"/>
<path opacity="0.2" d="M1871.26 268.386L599.484 836.582" stroke="white" stroke-width="2"/>
<path opacity="0.2" d="M1946.07 301.809L674.294 870.005" stroke="white" stroke-width="2"/>
<path opacity="0.2" d="M2020.88 335.232L749.104 903.428" stroke="white" stroke-width="2"/>
<path opacity="0.2" d="M2095.69 368.656L823.914 936.852" stroke="white" stroke-width="2"/>
<path opacity="0.2" d="M2170.5 402.079L898.725 970.275" stroke="white" stroke-width="2"/>
<path opacity="0.2" d="M2245.31 435.502L973.536 1003.7" stroke="white" stroke-width="2"/>
<path opacity="0.2" d="M2320.12 468.926L1048.35 1037.12" stroke="white" stroke-width="2"/>
<path opacity="0.2" d="M1048.35 101.27L2320.12 669.465" stroke="white" stroke-width="2"/>
<path opacity="0.2" d="M973.535 134.693L2245.31 702.889" stroke="white" stroke-width="2"/>
<path opacity="0.2" d="M898.725 168.116L2170.5 736.312" stroke="white" stroke-width="2"/>
<path opacity="0.2" d="M823.915 201.54L2095.69 769.735" stroke="white" stroke-width="2"/>
<path opacity="0.2" d="M749.104 234.963L2020.88 803.158" stroke="white" stroke-width="2"/>
<path opacity="0.2" d="M674.294 268.386L1946.07 836.582" stroke="white" stroke-width="2"/>
<path opacity="0.2" d="M599.498 301.809L1871.27 870.005" stroke="white" stroke-width="2"/>
<path opacity="0.2" d="M524.688 335.232L1796.46 903.428" stroke="white" stroke-width="2"/>
<path opacity="0.2" d="M449.877 368.656L1721.65 936.852" stroke="white" stroke-width="2"/>
<path opacity="0.2" d="M375.067 402.079L1646.84 970.275" stroke="white" stroke-width="2"/>
<path opacity="0.2" d="M300.257 435.502L1572.03 1003.7" stroke="white" stroke-width="2"/>
<path opacity="0.2" d="M225.446 468.926L1497.22 1037.12" stroke="white" stroke-width="2"/>
<path opacity="0.2" d="M150.636 502.349L1422.41 1070.54" stroke="white" stroke-width="2"/>
</svg>
