<svg width="209" height="261" viewBox="0 0 209 261" fill="none" xmlns="http://www.w3.org/2000/svg">
<g clip-path="url(#clip0_1_5463)">
<mask id="mask0_1_5463" style="mask-type:alpha" maskUnits="userSpaceOnUse" x="0" y="-381" width="822" height="642">
<path d="M700.237 -380.761L0 -193.133L121.645 260.852L821.882 73.2246L700.237 -380.761Z" fill="url(#paint0_radial_1_5463)"/>
</mask>
<g mask="url(#mask0_1_5463)">
<path d="M54.6859 10.9579L755.328 -176.779" stroke="url(#paint1_linear_1_5463)"/>
<path d="M60.7682 33.6572L761.41 -154.079" stroke="url(#paint2_linear_1_5463)"/>
<path d="M66.8504 56.3564L767.493 -131.38" stroke="url(#paint3_linear_1_5463)"/>
<path d="M72.9327 79.0557L773.575 -108.681" stroke="url(#paint4_linear_1_5463)"/>
<path d="M79.0149 101.755L779.657 -85.9816" stroke="url(#paint5_linear_1_5463)"/>
<path d="M85.0972 124.454L785.739 -63.2823" stroke="url(#paint6_linear_1_5463)"/>
<path d="M91.1794 147.153L791.822 -40.583" stroke="url(#paint7_linear_1_5463)"/>
<path d="M97.2617 169.853L797.904 -17.8838" stroke="url(#paint8_linear_1_5463)"/>
<path d="M103.344 192.552L803.986 4.81544" stroke="url(#paint9_linear_1_5463)"/>
<path d="M109.426 215.251L810.068 27.5147" stroke="url(#paint10_linear_1_5463)"/>
<path d="M115.508 237.95L816.151 50.214" stroke="url(#paint11_linear_1_5463)"/>
<path d="M121.591 260.65L822.233 72.9133" stroke="url(#paint12_linear_1_5463)"/>
<path d="M107.166 -220.544L228.485 232.225" stroke="url(#paint13_linear_1_5463)"/>
<path d="M139.603 -229.236L260.922 223.533" stroke="url(#paint14_linear_1_5463)"/>
<path d="M172.04 -237.927L293.359 214.842" stroke="url(#paint15_linear_1_5463)"/>
<path d="M204.477 -246.619L325.796 206.15" stroke="url(#paint16_linear_1_5463)"/>
<path d="M75.1344 -211.962L196.454 240.808" stroke="url(#paint17_linear_1_5463)"/>
<path d="M42.6972 -203.27L164.016 249.499" stroke="url(#paint18_linear_1_5463)"/>
<path d="M10.2602 -194.579L131.579 258.191" stroke="url(#paint19_linear_1_5463)"/>
</g>
</g>
<defs>
<radialGradient id="paint0_radial_1_5463" cx="0" cy="0" r="1" gradientUnits="userSpaceOnUse" gradientTransform="translate(405.985 -79.2622) rotate(75) scale(197.232 361.275)">
<stop stop-color="#C4C4C4"/>
<stop offset="1" stop-color="#C4C4C4" stop-opacity="0.03"/>
</radialGradient>
<linearGradient id="paint1_linear_1_5463" x1="48.9208" y1="12.8902" x2="63.4316" y2="56.1829" gradientUnits="userSpaceOnUse">
<stop stop-color="#3F68FF"/>
<stop offset="1" stop-color="#CD63FF"/>
</linearGradient>
<linearGradient id="paint2_linear_1_5463" x1="55.003" y1="35.5895" x2="69.5138" y2="78.8822" gradientUnits="userSpaceOnUse">
<stop stop-color="#3F68FF"/>
<stop offset="1" stop-color="#CD63FF"/>
</linearGradient>
<linearGradient id="paint3_linear_1_5463" x1="61.0853" y1="58.2888" x2="75.5961" y2="101.581" gradientUnits="userSpaceOnUse">
<stop stop-color="#3F68FF"/>
<stop offset="1" stop-color="#CD63FF"/>
</linearGradient>
<linearGradient id="paint4_linear_1_5463" x1="67.1676" y1="80.988" x2="81.6784" y2="124.281" gradientUnits="userSpaceOnUse">
<stop stop-color="#3F68FF"/>
<stop offset="1" stop-color="#CD63FF"/>
</linearGradient>
<linearGradient id="paint5_linear_1_5463" x1="73.2498" y1="103.687" x2="87.7606" y2="146.98" gradientUnits="userSpaceOnUse">
<stop stop-color="#3F68FF"/>
<stop offset="1" stop-color="#CD63FF"/>
</linearGradient>
<linearGradient id="paint6_linear_1_5463" x1="79.3321" y1="126.387" x2="93.8428" y2="169.679" gradientUnits="userSpaceOnUse">
<stop stop-color="#3F68FF"/>
<stop offset="1" stop-color="#CD63FF"/>
</linearGradient>
<linearGradient id="paint7_linear_1_5463" x1="85.4143" y1="149.086" x2="99.9251" y2="192.379" gradientUnits="userSpaceOnUse">
<stop stop-color="#3F68FF"/>
<stop offset="1" stop-color="#CD63FF"/>
</linearGradient>
<linearGradient id="paint8_linear_1_5463" x1="91.4965" y1="171.785" x2="106.007" y2="215.078" gradientUnits="userSpaceOnUse">
<stop stop-color="#3F68FF"/>
<stop offset="1" stop-color="#CD63FF"/>
</linearGradient>
<linearGradient id="paint9_linear_1_5463" x1="97.5788" y1="194.484" x2="112.09" y2="237.777" gradientUnits="userSpaceOnUse">
<stop stop-color="#3F68FF"/>
<stop offset="1" stop-color="#CD63FF"/>
</linearGradient>
<linearGradient id="paint10_linear_1_5463" x1="103.661" y1="217.184" x2="118.172" y2="260.476" gradientUnits="userSpaceOnUse">
<stop stop-color="#3F68FF"/>
<stop offset="1" stop-color="#CD63FF"/>
</linearGradient>
<linearGradient id="paint11_linear_1_5463" x1="109.743" y1="239.883" x2="124.254" y2="283.176" gradientUnits="userSpaceOnUse">
<stop stop-color="#3F68FF"/>
<stop offset="1" stop-color="#CD63FF"/>
</linearGradient>
<linearGradient id="paint12_linear_1_5463" x1="115.826" y1="262.582" x2="130.336" y2="305.875" gradientUnits="userSpaceOnUse">
<stop stop-color="#3F68FF"/>
<stop offset="1" stop-color="#CD63FF"/>
</linearGradient>
<linearGradient id="paint13_linear_1_5463" x1="152.577" y1="-51.0353" x2="153.564" y2="-51.2998" gradientUnits="userSpaceOnUse">
<stop stop-color="#3F68FF"/>
<stop offset="1" stop-color="#CD63FF"/>
</linearGradient>
<linearGradient id="paint14_linear_1_5463" x1="185.014" y1="-59.7268" x2="186.001" y2="-59.9914" gradientUnits="userSpaceOnUse">
<stop stop-color="#3F68FF"/>
<stop offset="1" stop-color="#CD63FF"/>
</linearGradient>
<linearGradient id="paint15_linear_1_5463" x1="217.451" y1="-68.4183" x2="218.439" y2="-68.6829" gradientUnits="userSpaceOnUse">
<stop stop-color="#3F68FF"/>
<stop offset="1" stop-color="#CD63FF"/>
</linearGradient>
<linearGradient id="paint16_linear_1_5463" x1="249.888" y1="-77.1098" x2="250.876" y2="-77.3744" gradientUnits="userSpaceOnUse">
<stop stop-color="#3F68FF"/>
<stop offset="1" stop-color="#CD63FF"/>
</linearGradient>
<linearGradient id="paint17_linear_1_5463" x1="120.546" y1="-42.4526" x2="121.533" y2="-42.7171" gradientUnits="userSpaceOnUse">
<stop stop-color="#3F68FF"/>
<stop offset="1" stop-color="#CD63FF"/>
</linearGradient>
<linearGradient id="paint18_linear_1_5463" x1="88.1084" y1="-33.761" x2="89.0959" y2="-34.0256" gradientUnits="userSpaceOnUse">
<stop stop-color="#3F68FF"/>
<stop offset="1" stop-color="#CD63FF"/>
</linearGradient>
<linearGradient id="paint19_linear_1_5463" x1="55.6793" y1="-25.0717" x2="55.6794" y2="-25.0717" gradientUnits="userSpaceOnUse">
<stop stop-color="#3F68FF"/>
<stop offset="1" stop-color="#CD63FF"/>
</linearGradient>
<clipPath id="clip0_1_5463">
<rect width="722" height="470" fill="white" transform="translate(0 -193.133) rotate(-15)"/>
</clipPath>
</defs>
</svg>
